<svg id="Layer_1" data-name="Layer 1" xmlns="http://www.w3.org/2000/svg" viewBox="0 0 528.84 560.14"><defs><style>.cls-1{opacity:0.22;}.cls-2{fill:none;stroke:#ccc;stroke-miterlimit:10;stroke-width:3px;}</style></defs><g class="cls-1"><path class="cls-2" d="M294.69,322.48c-.06-22.36-.82-193.86-.32-206.08s-17.76-33.16-40.21-20.23S96.83,185.54,89.42,189.44C67.53,201,72.93,227.7,83.21,234s161,96.72,173.23,104.13C273.64,350.74,294.74,342.16,294.69,322.48Z" transform="translate(-33.22 -90.23)"/><path class="cls-2" d="M341.41,340.59c19.18-11.5,166.1-100,176.86-105.79s19.39-32.24-3.21-44.9S357.73,100.52,350.59,96.15c-21.1-12.91-41.31,5.43-41.42,17.46s-.64,187.84-.76,202.11C306.36,337,324.53,350.71,341.41,340.59Z" transform="translate(-33.22 -90.23)"/><path class="cls-2" d="M560.56,478.3c-.06-22.36-.82-193.86-.32-206.08S542.48,239.06,520,252,362.7,341.36,355.29,345.26c-21.88,11.52-16.49,38.26-6.21,44.52s161,96.72,173.23,104.13C539.51,506.56,560.61,498,560.56,478.3Z" transform="translate(-33.22 -90.23)"/><path class="cls-2" d="M251.64,350.21C232.15,339.23,82.54,255.4,72.15,249s-37.61-.88-37.42,25,.26,180.94,0,189.32C34,488,59.91,496.48,70.41,490.62s163.51-92.47,176-99.44C265.86,382.44,268.79,359.86,251.64,350.21Z" transform="translate(-33.22 -90.23)"/><path class="cls-2" d="M310.44,418.16c-.24,22.37-1.72,193.86-2.38,206.07S325.39,657.63,348,645s158.49-87.31,166-91.11c22-11.23,17-38,6.79-44.44S361,410.63,348.89,403.06C331.86,390.19,310.65,398.49,310.44,418.16Z" transform="translate(-33.22 -90.23)"/><path class="cls-2" d="M260.12,399c-18.94,11.9-164,103.44-174.59,109.49s-18.71,32.65,4.15,44.82,159.18,86.05,166.41,90.27c21.37,12.45,41.19-6.3,41-18.33s-3.32-187.81-3.5-202.09C295.23,401.83,276.78,388.49,260.12,399Z" transform="translate(-33.22 -90.23)"/></g></svg>