<svg id="Layer_1" data-name="Layer 1" xmlns="http://www.w3.org/2000/svg" viewBox="0 0 514.07 57.82"><defs><style>.cls-1{fill:#ccc;}</style></defs><path class="cls-1" d="M110.47,392c1.27,0,1.9.61,1.9,1.82v7.85c0,1.21-.63,1.82-1.9,1.82H74.38a22,22,0,0,0-5.33.53,7.25,7.25,0,0,0-3.39,1.82,7,7,0,0,0-1.77,3.47,25,25,0,0,0-.5,5.41v.83h46.67a1.6,1.6,0,0,1,1.82,1.81v6.53a1.61,1.61,0,0,1-1.82,1.82H63.39v1.4a25,25,0,0,0,.5,5.41A7,7,0,0,0,65.66,436a7.25,7.25,0,0,0,3.39,1.82,22,22,0,0,0,5.33.53h36.09c1.27,0,1.9.61,1.9,1.82V448c0,1.21-.63,1.82-1.9,1.82H74.13a42.33,42.33,0,0,1-10.66-1.16,16.16,16.16,0,0,1-7.14-3.76,15.09,15.09,0,0,1-4-6.77A35,35,0,0,1,51,428.05V413.84a34.58,34.58,0,0,1,1.28-10.08,15.17,15.17,0,0,1,4-6.73,16.63,16.63,0,0,1,7.14-3.8A40.84,40.84,0,0,1,74.13,392Z" transform="translate(-51 -392.03)"/><path class="cls-1" d="M179.28,392a1.61,1.61,0,0,1,1.82,1.82v7.85a1.61,1.61,0,0,1-1.82,1.82H137.9a4.12,4.12,0,0,0-3.39,1.23,5.3,5.3,0,0,0-1,3.39V411c0,3.08,1.43,4.63,4.3,4.63h31q7.19,0,10.82,3.67t3.64,10.53v6.61a13.57,13.57,0,0,1-3.55,9.75q-3.55,3.72-11.07,3.72H122.86c-1.26,0-1.9-.61-1.9-1.82v-7.85c0-1.21.64-1.82,1.9-1.82h43.37a4.12,4.12,0,0,0,3.39-1.23,5.3,5.3,0,0,0,1-3.39v-3.39q0-4.62-4.3-4.62h-31q-7.18,0-10.82-3.68t-3.64-10.53v-6a13.57,13.57,0,0,1,3.55-9.75Q128,392,135.5,392Z" transform="translate(-51 -392.03)"/><path class="cls-1" d="M255.53,392c1.26,0,1.9.61,1.9,1.82V402a1.68,1.68,0,0,1-1.9,1.9H229.59V448a1.61,1.61,0,0,1-1.82,1.82h-9A1.61,1.61,0,0,1,217,448V403.85H191a1.68,1.68,0,0,1-1.9-1.9v-8.1c0-1.21.63-1.82,1.9-1.82Z" transform="translate(-51 -392.03)"/><path class="cls-1" d="M276.26,392a1.6,1.6,0,0,1,1.81,1.82v33a23.42,23.42,0,0,0,.54,5.49,7.38,7.38,0,0,0,1.78,3.47,6.85,6.85,0,0,0,3.34,1.82,22,22,0,0,0,5.33.54h22.88a21.92,21.92,0,0,0,5.33-.54,6.93,6.93,0,0,0,3.35-1.82,7.16,7.16,0,0,0,1.73-3.47,25.44,25.44,0,0,0,.5-5.49v-33a1.6,1.6,0,0,1,1.81-1.82h9a1.6,1.6,0,0,1,1.81,1.82v34.2a36.18,36.18,0,0,1-1.23,10.12,14.94,14.94,0,0,1-4,6.77,16.25,16.25,0,0,1-7.19,3.76,42.75,42.75,0,0,1-10.69,1.16H288.57a42.33,42.33,0,0,1-10.66-1.16,16.26,16.26,0,0,1-7.15-3.76,15.16,15.16,0,0,1-4-6.77,34.62,34.62,0,0,1-1.28-10.12v-34.2c0-1.21.63-1.82,1.9-1.82Z" transform="translate(-51 -392.03)"/><path class="cls-1" d="M405.12,392c1.26,0,1.9.61,1.9,1.82v7.85c0,1.21-.64,1.82-1.9,1.82H369a22,22,0,0,0-5.33.53,7.21,7.21,0,0,0-3.38,1.82,6.88,6.88,0,0,0-1.78,3.47,25,25,0,0,0-.5,5.41v.83h46.68a1.6,1.6,0,0,1,1.81,1.81v6.53a1.6,1.6,0,0,1-1.81,1.82H358v1.4a25,25,0,0,0,.5,5.41,6.88,6.88,0,0,0,1.78,3.47,7.21,7.21,0,0,0,3.38,1.82,22,22,0,0,0,5.33.53h36.1c1.26,0,1.9.61,1.9,1.82V448c0,1.21-.64,1.82-1.9,1.82H368.77a42.3,42.3,0,0,1-10.65-1.16,16.26,16.26,0,0,1-7.15-3.76,15.27,15.27,0,0,1-4.05-6.77,35,35,0,0,1-1.28-10.12V413.84a34.58,34.58,0,0,1,1.28-10.08A15.35,15.35,0,0,1,351,397a16.73,16.73,0,0,1,7.15-3.8,40.81,40.81,0,0,1,10.65-1.2Z" transform="translate(-51 -392.03)"/><path class="cls-1" d="M463.35,392q9.51,0,13.63,4.3t4.13,12.72v4.71q0,7.11-2.89,11.23t-9.41,5.29l14.12,17.51a1.32,1.32,0,0,1,.25,1.24c-.11.55-.55.83-1.32.83H471.2a3.21,3.21,0,0,1-1.49-.25,2.93,2.93,0,0,1-.82-.83L455.84,431.6H429.16V448a1.61,1.61,0,0,1-1.82,1.82h-8.92c-1.27,0-1.9-.61-1.9-1.82V394.51A2.19,2.19,0,0,1,419,392Zm-34.19,29.49h31.63q4.21,0,5.95-1.81t1.74-5.54V410.7q0-3.72-1.74-5.53t-5.95-1.82H430.23c-.72,0-1.07.33-1.07,1Z" transform="translate(-51 -392.03)"/><path class="cls-1" d="M528,392a10.23,10.23,0,0,1,5.29,1.28,13.12,13.12,0,0,1,4.21,5L564.79,448a1.72,1.72,0,0,1,.21,1.36q-.21.54-1.2.54H553.31a1.89,1.89,0,0,1-1.9-1.08l-5.87-10.65H506.72L501,448.78a2,2,0,0,1-1.9,1.08H488.38c-.71,0-1.14-.18-1.28-.54a1.68,1.68,0,0,1,.21-1.36l27.09-49.65a14.05,14.05,0,0,1,4.05-5,8.36,8.36,0,0,1,4.63-1.28Zm-16,36.51h28.42l-13.13-24.2a1,1,0,0,0-.91-.58h-.5a1,1,0,0,0-.91.58Z" transform="translate(-51 -392.03)"/></svg>