<svg id="Layer_1" data-name="Layer 1" xmlns="http://www.w3.org/2000/svg" xmlns:xlink="http://www.w3.org/1999/xlink" viewBox="0 0 261.45 289.23"><defs><style>.cls-1{fill:none;stroke:#3fa9f5;stroke-miterlimit:10;stroke-width:3px;}.cls-2{clip-path:url(#clip-path);}.cls-3{fill:url(#linear-gradient);}.cls-4{fill:#fff;}.cls-5{fill:#ccc;}.cls-6{fill:#999;}.cls-7{fill:#222;}</style><clipPath id="clip-path" transform="translate(-19.6 -59.39)"><path class="cls-1" d="M169,273.93c10.66-19.15,92.1-166.08,98.37-176.28s.86-36.94-24.3-36.75-175.8.26-183.94,0c-24-.75-32.25,24.72-26.55,35s89.84,160.58,96.6,172.82C137.71,287.89,159.65,290.77,169,273.93Z"/></clipPath><linearGradient id="linear-gradient" x1="130.72" y1="194.98" x2="130.72" y2="0.59" gradientUnits="userSpaceOnUse"><stop offset="0" stop-color="#3fa9f5"/><stop offset="0.45"/></linearGradient></defs><g class="cls-2"><rect class="cls-3" y="1.35" width="261.45" height="178.38" rx="6.03"/><path d="M221,231.66" transform="translate(-19.6 -59.39)"/><circle class="cls-4" cx="223.26" cy="56.57" r="0.67"/><path class="cls-4" d="M88.31,154.33a.77.77,0,1,1-1.53,0c0-.42.34-1,.77-1S88.31,153.91,88.31,154.33Z" transform="translate(-19.6 -59.39)"/><circle class="cls-4" cx="174.17" cy="67.96" r="0.77"/><circle class="cls-5" cx="37.8" cy="57.34" r="0.29"/><circle class="cls-5" cx="161.44" cy="91.41" r="0.29"/><circle class="cls-5" cx="187.45" cy="71.89" r="0.29"/><circle class="cls-5" cx="116.25" cy="97.54" r="0.29"/><circle class="cls-5" cx="81.42" cy="74.38" r="0.29"/><circle class="cls-6" cx="152.04" cy="125.49" r="0.29"/><circle class="cls-7" cx="210.99" cy="98.69" r="0.29"/><circle class="cls-6" cx="55.91" cy="105.42" r="0.29"/><path d="M232.76,275.27c30.83-29,21.67,73.35-54.59,73.35s-91.45-29.68-91.45-72S133,232.39,152,232.44C227,232.61,213.24,293.64,232.76,275.27Z" transform="translate(-19.6 -59.39)"/></g><path class="cls-1" d="M169,273.93c10.66-19.15,92.1-166.08,98.37-176.28s.86-36.94-24.3-36.75-175.8.26-183.94,0c-24-.75-32.25,24.72-26.55,35s89.84,160.58,96.6,172.82C137.71,287.89,159.65,290.77,169,273.93Z" transform="translate(-19.6 -59.39)"/><path class="cls-5" d="M72.79,75.55c.5,0,.75.24.75.71v3.09q0,.72-.75.72H58.57a8.78,8.78,0,0,0-2.1.21,2.76,2.76,0,0,0-1.33.72,2.68,2.68,0,0,0-.7,1.36,9.88,9.88,0,0,0-.2,2.13v.33H72.63a.63.63,0,0,1,.71.72v2.57a.63.63,0,0,1-.71.71H54.24v.55a9.91,9.91,0,0,0,.2,2.14,2.68,2.68,0,0,0,.7,1.36,2.76,2.76,0,0,0,1.33.72,8.78,8.78,0,0,0,2.1.21H72.79q.75,0,.75.72v3.09c0,.47-.25.71-.75.71H58.47a16.78,16.78,0,0,1-4.19-.45,6.55,6.55,0,0,1-2.82-1.48,6,6,0,0,1-1.59-2.67,13.63,13.63,0,0,1-.51-4V84.14a13.35,13.35,0,0,1,.51-4,5.84,5.84,0,0,1,1.59-2.65A6.47,6.47,0,0,1,54.28,76a15.82,15.82,0,0,1,4.19-.47Z" transform="translate(-19.6 -59.39)"/><path class="cls-5" d="M99.89,75.55a.63.63,0,0,1,.72.71v3.09a.64.64,0,0,1-.72.72H83.59a1.59,1.59,0,0,0-1.33.49,2.07,2.07,0,0,0-.39,1.33V83c0,1.21.56,1.82,1.69,1.82h12.2A5.71,5.71,0,0,1,100,86.27a5.63,5.63,0,0,1,1.44,4.15V93a5.35,5.35,0,0,1-1.4,3.84,5.82,5.82,0,0,1-4.36,1.46h-18c-.5,0-.75-.24-.75-.71V94.52q0-.72.75-.72H94.75a1.61,1.61,0,0,0,1.34-.49A2.07,2.07,0,0,0,96.48,92V90.64c0-1.21-.57-1.82-1.7-1.82H82.58a5.74,5.74,0,0,1-4.26-1.45,5.64,5.64,0,0,1-1.43-4.14V80.85A5.35,5.35,0,0,1,78.29,77a5.75,5.75,0,0,1,4.36-1.46Z" transform="translate(-19.6 -59.39)"/><path class="cls-5" d="M129.93,75.55a.64.64,0,0,1,.74.71v3.19a.66.66,0,0,1-.74.75H119.71V97.61a.63.63,0,0,1-.72.71h-3.54a.63.63,0,0,1-.72-.71V80.2H104.51a.66.66,0,0,1-.74-.75V76.26c0-.47.24-.71.74-.71Z" transform="translate(-19.6 -59.39)"/><path class="cls-5" d="M138.09,75.55a.63.63,0,0,1,.72.71v13a9.42,9.42,0,0,0,.21,2.17,2.92,2.92,0,0,0,.7,1.37,2.71,2.71,0,0,0,1.32.71,8.69,8.69,0,0,0,2.09.21h9a8.83,8.83,0,0,0,2.1-.21,2.72,2.72,0,0,0,1.31-.71,2.82,2.82,0,0,0,.69-1.37,10.15,10.15,0,0,0,.19-2.17v-13a.63.63,0,0,1,.72-.71h3.54a.63.63,0,0,1,.72.71V89.73a14,14,0,0,1-.49,4,5.86,5.86,0,0,1-1.58,2.67,6.48,6.48,0,0,1-2.83,1.48,17,17,0,0,1-4.21.45h-9.37a16.87,16.87,0,0,1-4.2-.45,6.45,6.45,0,0,1-2.81-1.48,6.07,6.07,0,0,1-1.6-2.67,14,14,0,0,1-.5-4V76.26c0-.47.25-.71.75-.71Z" transform="translate(-19.6 -59.39)"/><path class="cls-5" d="M188.85,75.55c.5,0,.75.24.75.71v3.09q0,.72-.75.72H174.63a8.72,8.72,0,0,0-2.1.21,2.76,2.76,0,0,0-1.33.72,2.68,2.68,0,0,0-.7,1.36,9.88,9.88,0,0,0-.2,2.13v.33h18.39a.63.63,0,0,1,.71.72v2.57a.63.63,0,0,1-.71.71H170.3v.55a9.91,9.91,0,0,0,.2,2.14,2.68,2.68,0,0,0,.7,1.36,2.76,2.76,0,0,0,1.33.72,8.72,8.72,0,0,0,2.1.21h14.22q.75,0,.75.72v3.09c0,.47-.25.71-.75.71H174.53a16.78,16.78,0,0,1-4.19-.45,6.55,6.55,0,0,1-2.82-1.48,6,6,0,0,1-1.59-2.67,13.63,13.63,0,0,1-.51-4V84.14a13.35,13.35,0,0,1,.51-4,5.84,5.84,0,0,1,1.59-2.65,6.47,6.47,0,0,1,2.82-1.5,15.82,15.82,0,0,1,4.19-.47Z" transform="translate(-19.6 -59.39)"/><path class="cls-5" d="M211.79,75.55q3.74,0,5.37,1.69a7,7,0,0,1,1.62,5V84.1a7.61,7.61,0,0,1-1.14,4.43,5.41,5.41,0,0,1-3.7,2.08l5.56,6.9a.52.52,0,0,1,.1.49c0,.21-.22.32-.52.32h-4.2a1.36,1.36,0,0,1-.59-.09,1.26,1.26,0,0,1-.32-.33l-5.14-6.77H198.32v6.48a.63.63,0,0,1-.72.71h-3.51c-.5,0-.75-.24-.75-.71V76.52a.86.86,0,0,1,1-1ZM198.32,87.16h12.46a3.16,3.16,0,0,0,2.34-.71,3,3,0,0,0,.69-2.18V82.9a3,3,0,0,0-.69-2.18,3.12,3.12,0,0,0-2.34-.72h-12q-.42,0-.42.39Z" transform="translate(-19.6 -59.39)"/><path class="cls-5" d="M237.23,75.55a3.93,3.93,0,0,1,2.08.5A5.07,5.07,0,0,1,241,78l10.77,19.55a.7.7,0,0,1,.09.54q-.09.21-.48.21h-4.13a.75.75,0,0,1-.75-.42l-2.31-4.2H228.87l-2.24,4.2a.8.8,0,0,1-.75.42h-4.23c-.29,0-.45-.07-.51-.21a.69.69,0,0,1,.08-.54L231.9,78a5.48,5.48,0,0,1,1.59-2,3.25,3.25,0,0,1,1.82-.5Zm-6.31,14.38h11.19l-5.17-9.54a.4.4,0,0,0-.36-.22h-.19a.38.38,0,0,0-.36.22Z" transform="translate(-19.6 -59.39)"/></svg>